<?xml version="1.0" encoding="UTF-8"?>
<!-- (c) Carrd Inc. All rights reserved. All logos and trademarks are property of their respective owners. -->
<svg xmlns="http://www.w3.org/2000/svg" version="1.1" xmlns:xlink="http://www.w3.org/1999/xlink" viewBox="0 0 40 40" display="none" width="0" height="0">
	<symbol id="arrow-right-alt-light" viewBox="0 0 40 40"><path d="M12.9,32.4L25.3,20L13,7.6c-0.2-0.2-0.2-0.5,0-0.7l1.6-1.6c0.2-0.2,0.5-0.2,0.7,0L29.8,20L15.1,34.6c-0.2,0.2-0.5,0.2-0.7,0 l-1.6-1.6C12.7,32.9,12.7,32.6,12.9,32.4z"/></symbol>
	<symbol id="bluesky" viewBox="0 0 40 40"><path d="M20,19.7c-1.6-3.1-5.9-8.8-9.9-11.6C6.2,5.4,4.8,5.9,3.8,6.3C2.7,6.8,2.5,8.5,2.5,9.5s0.6,8.2,0.9,9.4 c1.2,4,5.4,5.3,9.3,4.9c0.2,0,0.4-0.1,0.6-0.1c-0.2,0-0.4,0.1-0.6,0.1C7,24.7,1.9,26.8,8.6,34.2c7.3,7.6,10-1.6,11.4-6.3 c1.4,4.7,3,13.5,11.3,6.3c6.2-6.3,1.7-9.5-4-10.3c-0.2,0-0.4,0-0.6-0.1c0.2,0,0.4,0.1,0.6,0.1c3.9,0.4,8.1-0.9,9.3-4.9 c0.4-1.2,0.9-8.4,0.9-9.4s-0.2-2.7-1.3-3.2c-1-0.4-2.4-0.9-6.3,1.8C25.9,10.9,21.6,16.7,20,19.7z"/></symbol>
	<symbol id="email" viewBox="0 0 40 40"><path d="M37.5,12.6l-17.5,11.9L2.5,12.6c-.2-.1-.3-.2-.5-.2v-2.7c0-.8.6-1.4,1.4-1.4h33.1c.8,0,1.4.6,1.4,1.4v2.7c-.2,0-.4,0-.5.2ZM19.5,26.3c.2.1.3.2.5.2s.4,0,.5-.2l17.5-11.9v16.9c0,.8-.6,1.4-1.4,1.4H3.4c-.8,0-1.4-.6-1.4-1.4V14.4l17.5,11.9Z" /></symbol>
	<symbol id="gumroad" viewBox="0 0 40 40"><path d="M17.1,36.4C8.2,36.4,3,29.2,3,20.3C3,11.1,8.7,3.6,19.7,3.6c11.3,0,15.2,7.7,15.3,12h-8.2c-0.2-2.4-2.3-6.1-7.3-6.1 c-5.4,0-8.9,4.7-8.9,10.5c0,5.7,3.5,10.5,8.9,10.5c4.9,0,7-3.8,7.8-7.7h-7.8v-3.1H36v16h-7.2V25.6C28.3,29.2,26,36.4,17.1,36.4z"/></symbol>
</svg>
